<svg xmlns="http://www.w3.org/2000/svg" version="1.1" xmlns:xlink="http://www.w3.org/1999/xlink" xmlns:svgjs="http://svgjs.dev/svgjs" width="100%" height="100%" viewBox="0 0 1000 600"><rect width="1000" height="600" x="0" y="0" fill="#191919"/><g><circle r="166.66666666666666" cx="304.5335337320963" cy="326.7557517242276" fill="#f87c00" transform="matrix(0.9066717627601248,0,0,0.9066717627601248,0,3.7397754616940517)"/><path d="M345.75501138874466 263.49064024750186L336.2747514781489 275.52432259820074Q329.6195546927737 271.6126967325108 323.5076392776332 269.7383760052011Q317.3957238624927 267.89121934640303 309.871276884742 267.89121934640303L309.871276884742 267.89121934640303Q304.60144759346525 267.89121934640303 299.54893085028243 268.95061801836073Q294.5235781756113 270.0371807588301 290.6662804469449 272.4276187878629Q286.7818186497667 274.8180568168956 284.39138062073397 278.7025186140738Q282.00094259170123 282.55981634274025 282.00094259170123 288.12845038764607L282.00094259170123 288.12845038764607Q282.00094259170123 293.61559222701663 284.93466199096866 297.60871029824176Q287.8683813902361 301.62899243797864 292.6220933797898 304.8071884538517Q297.34864130083184 307.98538446972475 303.4605567159723 310.6746272523866Q309.5724721311128 313.3638700350484 315.928864162859 316.3519175713393Q322.2852561946051 319.3128010391185 328.3971716097456 322.8984580826676Q334.5090870248861 326.45695105770494 339.26279901443985 331.2921552527939Q343.9893469354818 336.15452351639453 346.92306633474925 342.5924077536759Q349.85678573401674 349.05745605946896 349.85678573401674 357.85861425727126L349.85678573401674 357.85861425727126Q349.85678573401674 365.0842564813929 347.90097280117175 371.19617189653343Q345.9451598683268 377.30808731167394 342.4953231673364 382.1976196437863Q339.0183223978342 387.0871519758988 334.21028227125703 390.75430122498307Q329.42940621319156 394.42145047406734 323.75211589423884 396.8662166401236Q318.0748255752861 399.3109828061798 311.77276168056346 400.53336588920786Q305.4706977858408 401.755748972236 298.9241572745125 401.755748972236L298.9241572745125 401.755748972236Q276.13350379316637 401.3754520130717 259.21028911035506 390.9172856360535L259.21028911035506 390.9172856360535L268.12010358220437 376.2486886397163Q270.0759165150493 377.4982357912561 273.2541125309224 379.12807990196023Q276.4323085467954 380.7307599441526 280.3439344124854 382.1976196437863Q284.25556027817527 383.6644793434201 288.65613937707644 384.6423858098426Q293.0567184759776 385.62029227626505 297.538789780414 385.62029227626505L297.538789780414 385.62029227626505Q303.62354112704276 385.62029227626505 309.4366517885542 384.09910443960786Q315.2497624500656 382.60508067146236 319.7861618915254 379.42688465558933Q324.349725401497 376.2486886397163 327.120460389694 371.3591563076039Q329.9183594464028 366.46962397549146 329.9183594464028 359.7057709160693L329.9183594464028 359.7057709160693Q329.9183594464028 353.3493788843232 326.9846400471354 348.6228309632812Q324.0509206478679 343.86911897372744 319.29720865831416 340.0933134505962Q314.5706607372722 336.3446719959767 308.4587453221317 333.3022963226623Q302.34682990699116 330.28708471785967 295.99043787524505 327.2447090445453Q289.63404584349894 324.2023333712309 283.5221304283584 320.8883170127992Q277.4102150132179 317.57430065436745 272.6565030236642 313.3638700350484Q267.9299551026222 309.1534394157294 264.9962357033547 303.7206257133823Q262.0625163040873 298.28781201103516 262.0625163040873 290.95351351286655L262.0625163040873 290.95351351286655Q262.0625163040873 281.4732536022708 265.9741421697772 274.1932832411257Q269.88576803546715 266.91331287998054 276.269324135725 261.9151242738212Q282.68004430449463 256.9440997361736 290.8021007895036 254.336349159047Q298.9241572745125 251.7557626504321 307.3178544446388 251.7557626504321L307.3178544446388 251.7557626504321Q328.15269499314 251.7557626504321 345.75501138874466 263.49064024750186L345.75501138874466 263.49064024750186Z " fill="#191919" transform="matrix(0.9066717627601248,0,0,0.9066717627601248,0,3.7397754616940517)"/><path d="M568.4093249998784 290.3170736721888L568.4093249998784 366.37839473104725L554.965928719708 366.37839473104725L554.965928719708 291.7321680174699L568.4093249998784 290.3170736721888ZM554.5335387808722 274.39726228777664L554.5335387808722 260.2463188349658L568.8417149387143 260.2463188349658L568.8417149387143 274.39726228777664L554.5335387808722 274.39726228777664ZM610.8621553583109 306.6692749954369L610.8621553583109 366.37839473104725L597.4187590781407 366.37839473104725L597.4187590781407 288.5482057405875L610.8621553583109 287.1331113953064L610.8621553583109 300.08515547225414L615.1860547466699 292.5183315426261Q616.4439163869197 291.6535516649543 618.3700170235522 290.74946361102474Q620.276463572056 289.8257214689662 622.6742623237823 289.0788661200679Q625.0917151636374 288.33201077116956 627.843287501684 287.84065856794695Q630.5948598397306 287.3493063647243 633.5036648828084 287.3493063647243L633.5036648828084 287.3493063647243Q641.4242623987567 287.3493063647243 646.3770926072405 291.2015076379895Q651.3299228157242 295.0537089112547 652.823633513521 301.0678598786993L652.823633513521 301.0678598786993L658.1891995727118 292.79348877643076Q660.6656146769536 290.80842587541144 665.2057090347305 289.0788661200679Q669.7261493043784 287.3493063647243 675.6027216549206 287.3493063647243L675.6027216549206 287.3493063647243Q680.9879418022404 287.3493063647243 684.8008348992478 289.1574824725835Q688.6137279962551 290.94600449231376 691.0704890123682 294.34616173861417Q693.5075959403522 297.7463189849145 694.6278789636998 302.561570576496Q695.7678160751763 307.3768221680775 695.7678160751763 313.3123567830065L695.7678160751763 313.3123567830065L695.7678160751763 366.37839473104725L682.3244197950058 366.37839473104725L682.3244197950058 314.019903955647Q682.3244197950058 310.20701085863965 681.7937594155254 307.3375139918197Q681.263099036045 304.46801712499973 679.9462751314085 302.5222624002382Q678.6491053149008 300.5765076754767 676.4478474444636 299.6134573571604Q674.2662436621553 298.670061126973 671.0036650327571 298.670061126973L671.0036650327571 298.670061126973Q668.9596398673511 298.670061126973 666.7190738206561 299.3776082996136Q664.49816186209 300.08515547225414 662.237941727266 301.24474667185945Q659.9580675043131 302.4239919595937 657.8157718982626 303.9373567455193Q655.6538222040832 305.4507215314449 653.7473756555795 307.0230485817572L653.7473756555795 307.0230485817572Q653.9439165368685 309.06707374716325 653.9832247131263 310.44285991618653Q654.0225328893841 311.8186460852098 654.0225328893841 314.019903955647L654.0225328893841 314.019903955647L654.0225328893841 366.37839473104725L640.5791366092138 366.37839473104725L640.5791366092138 314.019903955647Q640.5791366092138 306.3744636735034 638.0241051524563 302.5222624002382Q635.4887277838277 298.670061126973 628.9046082606449 298.670061126973L628.9046082606449 298.670061126973Q626.7819667427232 298.670061126973 624.384167990997 299.29899194709793Q621.9667151511417 299.9475768553518 619.6082245756733 301.0678598786993Q617.2300799120759 302.2077969901758 614.9698597772519 303.6621995117147Q612.709639642428 305.0969479451246 610.8621553583109 306.6692749954369L610.8621553583109 306.6692749954369ZM738.2206464336087 307.8681743713001L738.2206464336087 355.0576399687985L749.8165584296621 355.0576399687985Q756.3417156884583 355.0576399687985 761.1176591037819 352.89569027461914Q765.8936025191056 350.73374058043964 768.9596402672146 346.8422311309167Q772.0453321034526 342.9507216813937 773.5193887131203 337.5065392696873Q775.0130994109171 332.0623568579809 775.0130994109171 325.47823733479805L775.0130994109171 325.47823733479805Q775.0130994109171 318.5403442252949 773.6766214181515 313.48924357616664Q772.3204893372572 308.4381429270383 769.9816528499176 305.1362561213824Q767.6624704507069 301.8540234038555 764.576778614469 300.26204226541427Q761.4910867782311 298.670061126973 758.031967267544 298.670061126973L758.031967267544 298.670061126973Q754.572847756857 298.670061126973 751.5657722731346 299.5544950927737Q748.5586967894122 300.4389290585744 746.0429735089125 301.77540705133987Q743.5272502284129 303.13153913223425 741.5421873273935 304.74317435880437Q739.5571244263743 306.3744636735034 738.2206464336087 307.8681743713001L738.2206464336087 307.8681743713001ZM738.2206464336087 401.7557533630744L724.7772501534384 401.7557533630744L724.7772501534384 288.5482057405875L738.2206464336087 287.1331113953064L738.2206464336087 299.5938032690315L744.942344573694 290.59223090599346Q746.9863697390999 289.39333153013035 750.7796087479784 288.37131894742737Q754.572847756857 287.3493063647243 760.07599243295 287.3493063647243L760.07599243295 287.3493063647243Q765.9525647834922 287.3493063647243 771.1215899613941 290.1008787027709Q776.2906151392958 292.8721051289464 780.142816412561 297.9625139543325Q783.9950176858262 303.05292277971864 786.2355837325213 310.26597312302636Q788.4564956910873 317.4790234663342 788.4564956910873 326.4019794768565L788.4564956910873 326.4019794768565Q788.4564956910873 335.108740517961 785.6263070005251 342.4200613019133Q782.7961183099629 349.75103617399446 777.5877849558034 355.09694814505633Q772.3991056897728 360.44286011611825 765.0091685533049 363.41062742358275Q757.599577328708 366.37839473104725 748.4800804368966 366.37839473104725L748.4800804368966 366.37839473104725L738.2206464336087 366.37839473104725L738.2206464336087 401.7557533630744ZM816.0508354240685 251.75575276327925L816.0508354240685 339.7667594045113Q816.0508354240685 344.4444323791904 816.581495803549 347.589086479815Q817.1121561830295 350.73374058043964 818.1341687657324 352.67949530520116Q819.1561813484353 354.6252500299627 820.6892002224898 355.45072173137663Q822.2025650084155 356.2565393446617 824.1876279094348 356.2565393446617L824.1876279094348 356.2565393446617Q825.7403008716182 356.2565393446617 827.017816599997 356.07965255150157Q828.2953323283758 355.9027657583414 829.2190744704343 355.62760852453675L829.2190744704343 355.62760852453675Q830.280395229395 355.3327972026032 831.1255210189379 354.9790236162829L831.1255210189379 354.9790236162829L835.999734874906 363.54820604048507Q835.4297663191679 364.1181745962233 834.191558767047 364.78641359260604Q832.9533512149259 365.4546525889888 831.2630996358401 366.1032374972426Q829.5728480567544 366.7321683173675 827.410898362575 367.1645582562034Q825.2489486683957 367.57729410691036 822.7725335641537 367.57729410691036L822.7725335641537 367.57729410691036Q816.4046090103888 367.57729410691036 812.4344832083502 365.2384576195708Q808.4840114944406 362.91927522036013 806.2827536240032 358.87053306580594Q804.1011498416949 354.8414449993806 803.3542944927966 349.49553302831873Q802.6074391438982 344.16927514538577 802.6074391438982 338.0765078254255L802.6074391438982 338.0765078254255L802.6074391438982 267.3217905613712L801.1923447986171 253.1708471085603L816.0508354240685 251.75575276327925ZM865.5791375089066 290.3170736721888L865.5791375089066 366.37839473104725L852.1357412287363 366.37839473104725L852.1357412287363 291.7321680174699L865.5791375089066 290.3170736721888ZM851.7033512899004 274.39726228777664L851.7033512899004 260.2463188349658L866.0115274477424 260.2463188349658L866.0115274477424 274.39726228777664L851.7033512899004 274.39726228777664ZM883.9753639975606 299.86896050283616L883.9753639975606 288.5482057405875L894.5885715871688 288.5482057405875L894.5885715871688 277.58122456465907Q894.5885715871688 271.56707359721446 895.9053954918054 266.8304383581486Q897.2025653083132 262.09380311908274 900.0327539988753 258.79191631342684Q902.8629426894374 255.5096835958999 907.2851125184408 253.74081566429854Q911.7072823474442 251.97194773269717 917.9376282843067 251.97194773269717L917.9376282843067 251.97194773269717Q921.1215905611892 251.97194773269717 923.7748924585912 252.5026081121776Q926.4281943559932 253.033268491658 928.6491063145594 253.87839428120085Q930.8896723612545 254.72352007074375 932.7568107335004 255.86345718222017Q934.6436031938753 256.9837402055677 936.117659803543 258.2022936695597L936.117659803543 258.2022936695597L930.1035088360983 266.53562703621503Q928.6294522264305 265.4743062772542 925.9958044171574 264.3933314301645Q923.3818106960132 263.29270249494584 920.1978484191308 263.29270249494584L920.1978484191308 263.29270249494584Q914.1247351872994 263.29270249494584 910.9014647341593 266.71251382937515Q907.6781942810188 270.15197925193337 907.6781942810188 278.2887717372996L907.6781942810188 278.2887717372996L907.6781942810188 288.5482057405875L928.1970622875946 288.5482057405875L926.7819679423136 299.86896050283616L908.0319678673392 299.86896050283616L908.0319678673392 366.37839473104725L894.5885715871688 366.37839473104725L894.5885715871688 299.86896050283616L883.9753639975606 299.86896050283616ZM964.6357416785826 290.3170736721888L964.6357416785826 366.37839473104725L951.1923453984124 366.37839473104725L951.1923453984124 291.7321680174699L964.6357416785826 290.3170736721888ZM950.7599554595764 274.39726228777664L950.7599554595764 260.2463188349658L965.0681316174185 260.2463188349658L965.0681316174185 274.39726228777664L950.7599554595764 274.39726228777664Z " fill="#f9f4f4" transform="matrix(0.9066717627601248,0,0,0.9066717627601248,0,3.7397754616940517)"/></g></svg>