<svg width="14" height="14" viewBox="0 0 14 14" fill="none" xmlns="http://www.w3.org/2000/svg">
<path d="M6.0651 13.0838L0.565104 7.58381C0.481771 7.50047 0.422604 7.4102 0.387604 7.31298C0.35316 7.21575 0.335938 7.11159 0.335938 7.00048C0.335938 6.88936 0.35316 6.7852 0.387604 6.68798C0.422604 6.59075 0.481771 6.50048 0.565104 6.41714L6.0651 0.917142C6.21788 0.764364 6.40872 0.684365 6.6376 0.677142C6.86705 0.670476 7.0651 0.750475 7.23177 0.917142C7.39844 1.06992 7.48538 1.26075 7.4926 1.48964C7.49927 1.71909 7.41927 1.91714 7.2526 2.08381L3.16927 6.16714H12.4818C12.7179 6.16714 12.9159 6.24686 13.0759 6.40631C13.2354 6.56631 13.3151 6.76436 13.3151 7.00048C13.3151 7.23659 13.2354 7.43436 13.0759 7.59381C12.9159 7.75381 12.7179 7.83381 12.4818 7.83381H3.16927L7.2526 11.9171C7.40538 12.0699 7.48538 12.2644 7.4926 12.5005C7.49927 12.7366 7.41927 12.931 7.2526 13.0838C7.09983 13.2505 6.90538 13.3338 6.66927 13.3338C6.43316 13.3338 6.23177 13.2505 6.0651 13.0838Z" fill="#F7F7F7"/>
</svg>
