<svg width="26" height="29" viewBox="0 0 26 29" fill="none" xmlns="http://www.w3.org/2000/svg">
<path d="M22.4025 0C24.0236 0 25.3475 1.30645 25.375 2.93625V29L22.2575 26.245L20.503 24.621L18.647 22.8955L19.4155 25.578H2.9725C2.19096 25.5762 1.44141 25.2674 0.885397 24.7181C0.329381 24.1689 0.0114073 23.4232 0 22.6418L0 2.987C0 1.3514 1.30645 0.02755 2.92175 0H22.4025ZM10.614 6.931L10.469 6.757H10.3864C9.9905 6.77005 8.23165 6.902 6.3945 8.2795L6.3249 8.4129C5.96095 9.1234 4.3065 12.5773 4.3065 16.733L4.3355 16.7809C4.5414 17.0955 5.81305 18.8442 8.729 18.937L9.15675 18.4136L9.7005 17.7335C8.0098 17.2274 7.2848 16.2096 7.1775 16.0457L7.163 16.0225L7.22245 16.0616C7.2877 16.1052 7.4066 16.1777 7.569 16.269C7.5835 16.2835 7.598 16.298 7.627 16.3125C7.6705 16.3415 7.714 16.356 7.7575 16.385C8.12 16.588 8.4825 16.7475 8.816 16.878C9.4105 17.11 10.121 17.342 10.9475 17.5015C12.0046 17.6987 13.2385 17.7727 14.5841 17.5378L14.703 17.516C15.3845 17.4 16.0805 17.197 16.8055 16.8925C17.313 16.704 17.8785 16.4285 18.473 16.037L18.4498 16.0732C18.3106 16.2763 17.5508 17.2811 15.8485 17.7625L16.0878 18.0627C16.4546 18.518 16.8055 18.937 16.8055 18.937C20.01 18.8355 21.2425 16.733 21.2425 16.733C21.2425 12.064 19.1545 8.2795 19.1545 8.2795C17.3594 6.93245 15.6383 6.77585 15.1917 6.75845L15.08 6.757L14.877 6.989C17.0636 7.65745 18.212 8.58835 18.444 8.79135L18.4875 8.8305C16.2656 7.60513 13.7084 7.12725 11.194 7.4675C11.107 7.4675 11.0345 7.482 10.9475 7.4965L10.8663 7.50375C10.3153 7.5603 9.13065 7.7633 7.656 8.41L7.44575 8.5086C7.18185 8.6333 6.99045 8.73045 6.8875 8.7841L6.8005 8.8305C6.8005 8.8305 7.97935 7.7082 10.5357 6.9542L10.614 6.931ZM10.063 12.1655C10.8895 12.1655 11.5565 12.8905 11.542 13.775C11.542 14.6595 10.8895 15.3845 10.063 15.3845C9.251 15.3845 8.584 14.6595 8.584 13.775C8.584 12.8905 9.2365 12.1655 10.063 12.1655ZM15.3555 12.1655C16.182 12.1655 16.8345 12.8905 16.8345 13.775C16.8345 14.6595 16.182 15.3845 15.3555 15.3845C14.5435 15.3845 13.8765 14.6595 13.8765 13.775C13.8765 12.8905 14.529 12.1655 15.3555 12.1655Z" fill="#F9F4F4"/>
</svg>
