<svg width="34" height="34" viewBox="0 0 34 34" fill="none" xmlns="http://www.w3.org/2000/svg">
<path d="M17.0026 0.333008C7.80261 0.333008 0.335938 7.79968 0.335938 16.9997C0.335938 26.1997 7.80261 33.6663 17.0026 33.6663C26.2026 33.6663 33.6693 26.1997 33.6693 16.9997C33.6693 7.79968 26.2026 0.333008 17.0026 0.333008ZM24.7359 11.6663C24.4859 14.2997 23.4026 20.6997 22.8526 23.6497C22.6193 24.8997 22.1526 25.3163 21.7193 25.3663C20.7526 25.4497 20.0193 24.733 19.0859 24.1163C17.6193 23.1497 16.7859 22.5497 15.3693 21.6163C13.7193 20.533 14.7859 19.933 15.7359 18.9663C15.9859 18.7163 20.2526 14.833 20.3359 14.483C20.3475 14.43 20.346 14.375 20.3315 14.3227C20.3169 14.2704 20.2899 14.2225 20.2526 14.183C20.1526 14.0997 20.0193 14.133 19.9026 14.1497C19.7526 14.183 17.4193 15.733 12.8693 18.7997C12.2026 19.2497 11.6026 19.483 11.0693 19.4663C10.4693 19.4497 9.33594 19.133 8.48594 18.8497C7.43594 18.5163 6.61927 18.333 6.68594 17.7497C6.71927 17.4497 7.13594 17.1497 7.91927 16.833C12.7859 14.7163 16.0193 13.3163 17.6359 12.6497C22.2693 10.7163 23.2193 10.383 23.8526 10.383C23.9859 10.383 24.3026 10.4163 24.5026 10.583C24.6693 10.7163 24.7193 10.8997 24.7359 11.033C24.7193 11.133 24.7526 11.433 24.7359 11.6663Z" fill="#F9F4F4"/>
</svg>
