<svg width="32" height="32" viewBox="0 0 32 32" fill="none" xmlns="http://www.w3.org/2000/svg">
<path d="M16.0006 0.639648C7.51742 0.639648 0.640625 7.51645 0.640625 15.9996C0.640625 24.4828 7.51742 31.3596 16.0006 31.3596C24.4838 31.3596 31.3606 24.4828 31.3606 15.9996C31.3606 7.51645 24.4838 0.639648 16.0006 0.639648ZM22.2486 13.222C22.255 13.3532 22.2566 13.4844 22.2566 13.6124C22.2566 17.6124 19.215 22.222 13.6502 22.222C12.0059 22.2248 10.3958 21.7525 9.01342 20.862C9.24862 20.8908 9.49022 20.902 9.73502 20.902C11.1526 20.902 12.4566 20.4204 13.4918 19.6076C12.861 19.5952 12.2497 19.3864 11.7432 19.0101C11.2367 18.6338 10.8602 18.1089 10.6662 17.5084C11.1193 17.5946 11.586 17.5765 12.031 17.4556C11.3463 17.3172 10.7305 16.9462 10.2882 16.4055C9.84577 15.8648 9.60399 15.1878 9.60382 14.4892V14.4524C10.0118 14.678 10.479 14.8156 10.975 14.8316C10.3331 14.4043 9.87868 13.7479 9.70469 12.9967C9.53071 12.2454 9.6503 11.456 10.039 10.79C10.7989 11.7244 11.7466 12.4888 12.8207 13.0337C13.8948 13.5786 15.0714 13.8919 16.2742 13.9532C16.1213 13.3041 16.1871 12.6227 16.4614 12.0148C16.7358 11.407 17.2032 10.9068 17.7911 10.5921C18.379 10.2773 19.0545 10.1656 19.7124 10.2743C20.3704 10.383 20.974 10.7061 21.4294 11.1932C22.1065 11.0593 22.7558 10.8109 23.3494 10.4588C23.1238 11.1599 22.6513 11.7551 22.0198 12.134C22.6196 12.0618 23.2052 11.9006 23.7574 11.6556C23.3518 12.2635 22.8408 12.7939 22.2486 13.222Z" fill="#F9F4F4"/>
</svg>
